<svg width="270" height="24" viewBox="0 0 270 24" fill="none" xmlns="http://www.w3.org/2000/svg">
<rect x="0.5" y="0.5" width="269" height="23" fill="white" stroke="black"/>
<rect x="228.5" y="5.5" width="13" height="13" fill="white" stroke="black"/>
<line x1="212" y1="12.5" x2="222" y2="12.5" stroke="black"/>
<mask id="path-4-outside-1_86_1215" maskUnits="userSpaceOnUse" x="247" y="6" width="12" height="12" fill="black">
<rect fill="white" x="247" y="6" width="12" height="12"/>
<path d="M258 17L248 7ZM258 7L248 17Z"/>
</mask>
<path d="M257.293 17.7071C257.683 18.0976 258.317 18.0976 258.707 17.7071C259.098 17.3166 259.098 16.6834 258.707 16.2929L257.293 17.7071ZM248.707 6.29289C248.317 5.90237 247.683 5.90237 247.293 6.29289C246.902 6.68342 246.902 7.31658 247.293 7.70711L248.707 6.29289ZM258.707 7.70711C259.098 7.31658 259.098 6.68342 258.707 6.29289C258.317 5.90237 257.683 5.90237 257.293 6.29289L258.707 7.70711ZM247.293 16.2929C246.902 16.6834 246.902 17.3166 247.293 17.7071C247.683 18.0976 248.317 18.0976 248.707 17.7071L247.293 16.2929ZM258.707 16.2929L248.707 6.29289L247.293 7.70711L257.293 17.7071L258.707 16.2929ZM257.293 6.29289L247.293 16.2929L248.707 17.7071L258.707 7.70711L257.293 6.29289Z" fill="black" mask="url(#path-4-outside-1_86_1215)"/>
</svg>
